<svg xmlns="http://www.w3.org/2000/svg" width="800" height="200" viewBox="0 0 800 200" role="img" aria-label="Hybrid AI NIDS — Adaptive Network Defense">
<defs>
  <linearGradient id="bg" x1="0" y1="0" x2="1" y2="1">
    <stop offset="0%" stop-color="#0b1424"/>
    <stop offset="55%" stop-color="#0d1b2e"/>
    <stop offset="100%" stop-color="#0a1526"/>
  </linearGradient>
  <linearGradient id="shine" x1="0" y1="0" x2="1" y2="0">
    <stop offset="0%" stop-color="#34d399" stop-opacity="0.22"/>
    <stop offset="45%" stop-color="#34d399" stop-opacity="0.0"/>
  </linearGradient>
  <linearGradient id="bar" x1="0" y1="0" x2="0" y2="1">
    <stop offset="0%" stop-color="#34d399" stop-opacity="0.15"/>
    <stop offset="50%" stop-color="#34d399" stop-opacity="1"/>
    <stop offset="100%" stop-color="#34d399" stop-opacity="0.15"/>
  </linearGradient>
</defs>
<rect x="1" y="1" width="798" height="198" rx="16" fill="url(#bg)" stroke="rgba(52,211,153,0.35)" stroke-width="1.5"/>
<rect x="1" y="1" width="798" height="198" rx="16" fill="url(#shine)"/>
<line x1="60" y1="8" x2="60" y2="192" stroke="#ffffff" stroke-opacity="0.025"/>
<line x1="120" y1="8" x2="120" y2="192" stroke="#ffffff" stroke-opacity="0.025"/>
<line x1="180" y1="8" x2="180" y2="192" stroke="#ffffff" stroke-opacity="0.025"/>
<line x1="240" y1="8" x2="240" y2="192" stroke="#ffffff" stroke-opacity="0.025"/>
<line x1="300" y1="8" x2="300" y2="192" stroke="#ffffff" stroke-opacity="0.025"/>
<line x1="360" y1="8" x2="360" y2="192" stroke="#ffffff" stroke-opacity="0.025"/>
<line x1="420" y1="8" x2="420" y2="192" stroke="#ffffff" stroke-opacity="0.025"/>
<line x1="480" y1="8" x2="480" y2="192" stroke="#ffffff" stroke-opacity="0.025"/>
<line x1="540" y1="8" x2="540" y2="192" stroke="#ffffff" stroke-opacity="0.025"/>
<line x1="600" y1="8" x2="600" y2="192" stroke="#ffffff" stroke-opacity="0.025"/>
<line x1="660" y1="8" x2="660" y2="192" stroke="#ffffff" stroke-opacity="0.025"/>
<line x1="720" y1="8" x2="720" y2="192" stroke="#ffffff" stroke-opacity="0.025"/>
<line x1="780" y1="8" x2="780" y2="192" stroke="#ffffff" stroke-opacity="0.025"/>
<rect x="14" y="26" width="6" height="148" rx="3" fill="url(#bar)"/>
<text x="36" y="62" font-family="Segoe UI, Helvetica, Arial, sans-serif" font-size="26">🌐</text>
<text x="74" y="62" font-family="Segoe UI, Helvetica, Arial, sans-serif" font-size="24" font-weight="700" fill="#f8fafc">Hybrid AI NIDS — Adaptive Network Defense</text>
<text x="74" y="86" font-family="Segoe UI, Helvetica, Arial, sans-serif" font-size="11.5" font-weight="700" letter-spacing="1.4" fill="#34d399">CYBERSECURITY / APPLIED ML / SOC</text>
<text x="74" y="114" font-family="Segoe UI, Helvetica, Arial, sans-serif" font-size="14.5" fill="#cbd5e1">Detect known threats. Surface unusual behavior. Monitor changing traffic.</text>
<rect x="74.0" y="130.0" width="101.19999999999999" height="24" rx="12" fill="rgba(52,211,153,0.14)" stroke="rgba(52,211,153,0.45)" stroke-width="1"/>
<text x="124.6" y="146.0" text-anchor="middle" font-family="Segoe UI, Helvetica, Arial, sans-serif" font-size="11" font-weight="600" fill="#34d399">Model Fusion</text>
<rect x="183.2" y="130.0" width="127.6" height="24" rx="12" fill="rgba(52,211,153,0.14)" stroke="rgba(52,211,153,0.45)" stroke-width="1"/>
<text x="247.0" y="146.0" text-anchor="middle" font-family="Segoe UI, Helvetica, Arial, sans-serif" font-size="11" font-weight="600" fill="#34d399">Drift Monitoring</text>
<rect x="318.79999999999995" y="130.0" width="41.8" height="24" rx="12" fill="rgba(52,211,153,0.14)" stroke="rgba(52,211,153,0.45)" stroke-width="1"/>
<text x="339.69999999999993" y="146.0" text-anchor="middle" font-family="Segoe UI, Helvetica, Arial, sans-serif" font-size="11" font-weight="600" fill="#34d399">SOC</text>
<text x="74" y="180" font-family="Segoe UI, Helvetica, Arial, sans-serif" font-size="11.5" fill="#64748b">Python / scikit-learn / PyTorch / FastAPI / React</text>
<text x="772" y="180" text-anchor="end" font-family="Segoe UI, Helvetica, Arial, sans-serif" font-size="11" fill="#475569">github.com/satyamshrivastav955-dotcom/hybrid-ai-nids</text>
</svg>
